<svg viewBox="0 0 122 24" xmlns="http://www.w3.org/2000/svg">
<path d="M4.88082 15.1669C4.88082 12.9226 6.63379 11.3908 8.79923 11.3908C9.62416 11.3908 10.4147 11.6045 11.1709 12.032C12.1333 12.602 13.3363 12.6732 14.2988 11.8539C14.78 11.3551 14.9862 10.7139 14.9175 9.96579C14.8831 9.21768 14.5737 8.61207 13.9894 8.2202C12.5114 7.11585 10.7928 6.58148 8.79923 6.58148C6.42756 6.58148 4.36524 7.36522 2.61228 8.96831C0.859302 10.5714 0 12.6376 0 15.1669V15.2738C0 17.8031 0.859302 19.8693 2.61228 21.4724C4.36524 23.0755 6.42756 23.8593 8.79923 23.8593C10.7928 23.8593 12.5114 23.3249 13.9894 22.2205C14.5737 21.8287 14.8831 21.2231 14.9175 20.475C14.9862 19.7268 14.78 19.0856 14.2988 18.5869C13.3363 17.7675 12.1333 17.8388 11.1709 18.4087C10.4147 18.8362 9.62416 19.05 8.79923 19.05C6.63379 19.05 4.88082 17.5181 4.88082 15.2738V15.1669ZM46.2636 9.2533C45.0605 7.29397 42.9295 6.58148 41.4515 6.58148C39.286 6.58148 37.4643 7.36522 35.9176 8.93269C34.4052 10.4645 33.649 12.5664 33.649 15.2026C33.649 17.8744 34.4052 19.9762 35.9176 21.5437C37.4643 23.0755 39.286 23.8593 41.4515 23.8593C43.3419 23.8593 45.2668 22.8974 46.2636 21.1874V21.5081C46.2979 22.6837 47.3978 23.7168 48.6696 23.7168C50.0101 23.7168 51.0756 22.7549 51.0756 21.5081V8.93269C51.0756 7.68584 50.0101 6.72398 48.6696 6.72398C47.3978 6.72398 46.2979 7.75708 46.2636 8.93269V9.2533ZM42.3795 19.4418C40.0766 19.4418 38.5986 17.5538 38.5986 15.2382C38.5986 12.9226 40.0766 11.0345 42.3795 11.0345C43.4451 11.0345 44.3731 11.462 45.1293 12.317C45.9198 13.1364 46.2979 14.1338 46.2979 15.2382C46.2979 16.3425 45.9198 17.34 45.1293 18.195C44.3731 19.0144 43.4451 19.4418 42.3795 19.4418ZM62.6086 6.58148C60.5806 6.58148 59.1714 7.97083 58.3808 10.7495V8.93269C58.3808 7.68584 57.3153 6.72398 55.9748 6.72398C54.703 6.72398 53.6031 7.75708 53.5687 8.93269V21.5081C53.6031 22.6837 54.703 23.7168 55.9748 23.7168C57.3153 23.7168 58.3808 22.7549 58.3808 21.5081V17.4113C58.4839 13.1007 59.412 11.1058 62.0242 11.1058C62.1961 11.1058 62.9523 11.1414 63.1929 11.1414C64.3272 11.1414 65.3927 10.5002 65.5646 9.32455C65.8395 7.1871 64.5678 6.58148 62.6086 6.58148ZM68.6268 0C66.977 0 65.6365 1.28247 65.6365 2.88557C65.6365 4.48866 66.977 5.80676 68.6268 5.80676C70.2423 5.80676 71.5485 4.48866 71.5485 2.88557C71.5485 1.28247 70.2423 0 68.6268 0ZM71.0329 8.93269C71.0329 7.68584 69.9673 6.72398 68.6268 6.72398C67.3551 6.72398 66.2552 7.75708 66.2208 8.93269V21.5081C66.2552 22.6837 67.3551 23.7168 68.6268 23.7168C69.9673 23.7168 71.0329 22.7549 71.0329 21.5081V8.93269ZM78.3475 8.93269C78.3475 7.68584 77.282 6.72398 75.9415 6.72398C74.6697 6.72398 73.5698 7.75708 73.5354 8.93269V21.5081C73.5698 22.6837 74.6697 23.7168 75.9415 23.7168C77.282 23.7168 78.3475 22.7549 78.3475 21.5081V14.7394C78.3475 12.4951 79.3443 11.3551 81.3035 11.3551C82.9877 11.3551 84.0876 12.5307 84.0876 14.6682V21.5081C84.122 22.6837 85.2219 23.7168 86.4937 23.7168C87.8342 23.7168 88.8997 22.7549 88.8997 21.5081V13.5995C88.8997 8.93268 86.6999 6.54586 82.9877 6.54586C81.0973 6.54586 79.2068 7.65021 78.3475 9.32455V8.93269ZM98.92 6.58148C96.5483 6.58148 94.5203 7.36522 92.9048 8.96831C91.2894 10.5358 90.4988 12.602 90.4988 15.1669C90.4988 17.7319 91.2894 19.8337 92.9048 21.4368C94.5203 23.0399 96.5483 23.8593 98.92 23.8593C101.292 23.8593 103.32 23.0399 104.935 21.4368C106.551 19.8337 107.375 17.7319 107.375 15.1669C107.375 12.602 106.551 10.5358 104.935 8.96831C103.32 7.36522 101.326 6.58148 98.92 6.58148ZM102.563 15.1669C102.563 17.4113 100.948 19.05 98.92 19.05C96.892 19.05 95.3109 17.4113 95.3109 15.1669C95.3109 12.9939 96.892 11.3908 98.92 11.3908C100.948 11.3908 102.563 12.9939 102.563 15.1669ZM108.629 20.3325C109.007 21.4724 109.832 22.363 111.07 22.9687C112.307 23.5743 113.648 23.8949 115.057 23.8949C116.913 23.8949 118.528 23.4318 119.903 22.5412C121.313 21.6506 122 20.3681 122 18.6937C122 17.625 121.484 14.9888 117.635 13.7063L115.194 12.8514C114.266 12.5307 113.819 12.1389 113.819 11.6758C113.819 10.9989 114.404 10.6783 115.572 10.6783C116.225 10.6783 116.844 10.9276 117.497 11.4264C118.563 12.2814 119.594 12.4239 120.556 11.8183C121.278 11.3908 121.519 10.3933 120.969 9.28893C119.972 7.47209 118.047 6.54586 115.194 6.54586C113.51 6.54586 112.066 7.0446 110.829 8.00645C109.592 8.96831 108.973 10.037 108.973 11.2839C108.973 12.3882 109.007 12.8157 109.523 13.9557C110.073 15.0957 111.517 16.0219 113.751 16.8413L115.572 17.5181C116.81 17.9456 117.154 18.195 117.154 18.8719C117.154 19.5487 116.466 19.905 115.091 19.905C113.957 19.905 112.926 19.4062 112.066 18.4444C111.482 17.7319 110.623 17.4113 109.489 17.8388C108.698 18.2306 108.32 19.2994 108.629 20.3325Z"/>
<path d="M22.5118 12.3517L23.3837 13.2553L24.0129 12.6032L23.1409 11.6995L22.5118 12.3517Z"/>
<path d="M24.163 12.8091L23.557 13.4371L24.1661 14.0684L24.772 13.4404L24.163 12.8091Z"/>
<path d="M24.775 10.9014V7.31707C24.775 7.14754 24.71 6.98494 24.5943 6.8651C24.4786 6.74525 24.3218 6.67789 24.1582 6.67789C23.9948 6.67789 23.8378 6.74525 23.7221 6.8651C23.6065 6.98494 23.5416 7.14754 23.5416 7.31707V9.62255L24.775 10.9014Z"/>
<path d="M19.927 14.7023H16.3838C16.2202 14.7023 16.0634 14.7696 15.9477 14.8895C15.8321 15.0093 15.7671 15.1719 15.7671 15.3414C15.7671 15.5109 15.8321 15.6735 15.9477 15.7934C16.0634 15.9133 16.2202 15.9806 16.3838 15.9806H18.7007L19.927 14.7023Z"/>
<path d="M31.8631 14.7023H29.6919L28.4657 15.9807H31.8631C32.0268 15.9807 32.1835 15.9134 32.2992 15.7935C32.4147 15.6737 32.4799 15.5111 32.4799 15.3416C32.4799 15.1721 32.4147 15.0095 32.2992 14.8896C32.1835 14.7698 32.0268 14.7023 31.8631 14.7023Z"/>
<path d="M21.2959 17.4197L18.6611 20.1504C18.5454 20.2702 18.4803 20.4328 18.4803 20.6023C18.4802 20.7718 18.5452 20.9344 18.6608 21.0544C18.7764 21.1742 18.9333 21.2417 19.0968 21.2417C19.2604 21.2417 19.4173 21.1745 19.533 21.0546L22.1678 18.3233L21.2959 17.4197Z"/>
<path d="M27.0507 13.2631L29.7107 10.5064C29.7692 10.4474 29.816 10.3769 29.8479 10.299C29.88 10.2211 29.8969 10.1374 29.8974 10.0527C29.898 9.968 29.8824 9.88404 29.8514 9.80573C29.8204 9.72736 29.7747 9.65617 29.7168 9.5963C29.659 9.53642 29.5904 9.48907 29.5147 9.45694C29.4391 9.42481 29.3582 9.4086 29.2764 9.40922C29.1948 9.40984 29.1141 9.42726 29.0389 9.4605C28.9637 9.49377 28.8957 9.54214 28.8387 9.6029L26.1792 12.3598L27.0507 13.2631Z"/>
<path d="M23.5416 23.3609C23.5416 23.5302 23.6065 23.693 23.7221 23.8129C23.8378 23.9328 23.9948 24 24.1582 24C24.3218 24 24.4786 23.9328 24.5943 23.8129C24.71 23.693 24.775 23.5302 24.775 23.3609V21.0261L23.5416 19.7479V23.3609Z"/>
<path d="M20.4613 22.0939C20.4037 22.1531 20.358 22.2236 20.3267 22.3013C20.2954 22.3788 20.2793 22.462 20.2791 22.5463C20.279 22.6304 20.2948 22.7136 20.3258 22.7913C20.3568 22.869 20.4023 22.9397 20.4597 22.9992C20.5171 23.0586 20.5852 23.1058 20.6603 23.138C20.7352 23.1701 20.8156 23.1865 20.8968 23.1863C20.9779 23.1863 21.0583 23.1694 21.1331 23.1371C21.208 23.1047 21.276 23.0573 21.3332 22.9976L23.3137 20.945V19.5102L23.1338 19.324L20.4613 22.0939Z"/>
<path d="M22.2354 16.2382H20.8533L20.6731 16.4254L21.3813 17.1595L21.3895 17.1512L22.3438 18.1405L22.3357 18.1488L24.1732 20.0538L24.1811 20.0455L25.0139 20.9084L25.0058 20.9167L26.9636 22.9457C27.0206 23.0066 27.0885 23.0549 27.1638 23.0882C27.2387 23.1214 27.3197 23.1388 27.4012 23.1395C27.4831 23.1401 27.564 23.124 27.6396 23.0918C27.7153 23.0597 27.7839 23.0123 27.8417 22.9523C27.8996 22.8924 27.9453 22.8213 27.9763 22.7429C28.0073 22.6647 28.0229 22.5806 28.0223 22.4961C28.0218 22.4113 28.0049 22.3276 27.9728 22.2497C27.9407 22.1717 27.8941 22.1013 27.8356 22.0423L22.2354 16.2382Z"/>
<path d="M25.2153 18.9775L25.8446 18.3254L24.9707 17.4197L24.3413 18.0718L25.2153 18.9775Z"/>
<path d="M24.1831 16.6043L23.554 17.2565L24.1631 17.8879L24.7925 17.2357L24.7749 17.2179L24.1831 16.6043Z"/>
<path d="M28.7614 19.1931L28.7532 19.2009L26.0022 16.3501L25.8938 16.2392L25.824 16.1662L25.6448 15.981L25.2147 15.5343L24.7843 15.9803H24.7744V15.9907L24.359 16.4211L24.3511 16.4294L26.0094 18.1491L26.0176 18.1408L27.898 20.0879L27.8901 20.0967L28.826 21.0667C28.8832 21.1264 28.9511 21.1738 29.0259 21.2062C29.1009 21.2385 29.1812 21.2554 29.2623 21.2554C29.3435 21.2556 29.4239 21.2392 29.4989 21.2071C29.5739 21.1749 29.6421 21.1278 29.6995 21.0683C29.7569 21.0089 29.8024 20.9382 29.8332 20.8605C29.8642 20.7828 29.8803 20.6995 29.88 20.6154C29.8798 20.5313 29.8638 20.448 29.8326 20.3704C29.8011 20.2928 29.7554 20.2223 29.698 20.1631L28.7614 19.1931Z"/>
<path d="M23.1193 15.1523L23.5411 14.7144L23.5537 14.7013L23.9913 14.2485L19.52 9.61465C19.4042 9.49556 19.2476 9.42882 19.0845 9.42914C18.9213 9.42944 18.765 9.49673 18.6496 9.61629C18.5343 9.73584 18.4693 9.89788 18.4691 10.067C18.4687 10.2361 18.5331 10.3984 18.648 10.5183L23.1193 15.1523Z"/>
<path d="M27.593 14.7021L26.9746 15.343L26.8141 15.5089L26.1847 16.1611L26.2608 16.2393L27.0578 17.0652L27.6867 16.4126L27.8472 16.2466L27.8397 16.2388H27.8543L31.5104 12.4492C31.5677 12.3899 31.6134 12.3194 31.6443 12.2419C31.6752 12.1644 31.6913 12.0813 31.6913 11.9973C31.6913 11.9134 31.6752 11.8303 31.6443 11.7527C31.6134 11.6752 31.568 11.6048 31.5107 11.5454C31.4535 11.486 31.3855 11.439 31.3108 11.4068C31.2358 11.3747 31.1557 11.3581 31.0748 11.3581C30.9937 11.3581 30.9136 11.3746 30.8386 11.4067C30.7639 11.4388 30.6959 11.4859 30.6387 11.5452L27.8477 14.4388L27.593 14.7021Z"/>
<path d="M18.7809 14.465H20.1542L20.3389 14.2723L17.6578 11.4935C17.542 11.3743 17.3854 11.3076 17.2223 11.3079C17.0592 11.3082 16.9028 11.3755 16.7874 11.4951C16.6721 11.6146 16.6071 11.7767 16.6068 11.9458C16.6065 12.1148 16.6709 12.2772 16.7858 12.3971L18.7809 14.465Z"/>
<path d="M29.5836 16.2391H28.2177L28.0291 16.4345L30.6387 19.1392C30.6959 19.1989 30.7638 19.2463 30.8386 19.2787C30.9136 19.3111 30.9939 19.3278 31.075 19.328C31.1561 19.3281 31.2366 19.3117 31.3116 19.2796C31.3866 19.2474 31.4547 19.2003 31.5122 19.1408C31.5695 19.0814 31.6149 19.0107 31.6458 18.933C31.6767 18.8553 31.6928 18.772 31.6928 18.6878C31.6925 18.6037 31.6764 18.5205 31.6452 18.4429C31.6137 18.3653 31.568 18.2948 31.5106 18.2355L29.5836 16.2391Z"/>
<path d="M27.854 8.6236C27.9688 8.50362 28.0332 8.34132 28.033 8.17225C28.0325 8.00315 27.9677 7.8411 27.8524 7.72155C27.737 7.602 27.5807 7.5347 27.4175 7.53441C27.2543 7.53408 27.0977 7.60082 26.982 7.71992L25.0359 9.73704L25.0295 11.1661L25.2151 11.3585L27.854 8.6236Z"/>
<path d="M22.1679 14.5156L21.2966 13.6119L20.6667 14.2649L20.4985 14.4381L16.805 18.2671C16.7464 18.3261 16.6997 18.3966 16.6677 18.4745C16.6356 18.5524 16.6188 18.6361 16.6182 18.7208C16.6176 18.8054 16.6333 18.8894 16.6643 18.9677C16.6953 19.0461 16.741 19.1173 16.7988 19.1771C16.8566 19.237 16.9253 19.2844 17.0009 19.3165C17.0765 19.3486 17.1575 19.3649 17.2392 19.3643C17.3209 19.3636 17.4017 19.3462 17.4768 19.3129C17.5519 19.2797 17.62 19.2313 17.6769 19.1706L22.1679 14.5156Z"/>
<path d="M25.8493 14.5082L24.9774 13.6045L22.5044 16.1677L23.3763 17.0714L25.8493 14.5082Z"/>
<path d="M26.0039 15.9804L26.0074 15.9763L26.6368 15.3241L26.7973 15.1582L27.2127 14.7272L27.2367 14.7021H26.0367L26.0277 14.6928L25.3983 15.3449L25.3948 15.3491L26.0039 15.9804Z"/>
<path d="M26.1286 14.4645H27.4657L27.6691 14.2542L27.0602 13.6235L26.8821 13.4382L21.3329 7.68714C21.2763 7.62507 21.2082 7.57546 21.1327 7.54118C21.0573 7.50686 20.9759 7.48859 20.8935 7.48741C20.8111 7.48627 20.7293 7.50225 20.653 7.53441C20.5766 7.56657 20.5073 7.61429 20.449 7.67472C20.3908 7.73512 20.3448 7.80702 20.3138 7.88618C20.2828 7.96533 20.2675 8.05011 20.2686 8.13551C20.2698 8.22091 20.2875 8.30523 20.3207 8.38341C20.3538 8.46162 20.4018 8.53215 20.4617 8.59082L26.1286 14.4645Z"/>
<path d="M22.3422 14.6961L22.3356 14.7023L21.1024 15.9806H22.3206L22.3221 15.9796L22.9513 15.3274L22.3422 14.6961Z"/>
</svg>
