<svg viewBox="0 0 30 30" xmlns="http://www.w3.org/2000/svg">
<path d="M16.1699 1.10693V7.31494L13.9558 5.1001V1.10693C13.9558 0.813477 14.0723 0.531738 14.2799 0.324219C14.4875 0.116699 14.7694 0 15.0627 0C15.3564 0 15.6378 0.116699 15.8455 0.324219C15.962 0.440674 16.05 0.580566 16.1047 0.73291C16.1475 0.851807 16.1699 0.978271 16.1699 1.10693Z"/>
<path d="M12.1067 9.82861L13.6718 11.3938L14.8011 10.2642L13.236 8.69922L12.1067 9.82861Z"/>
<path d="M15.0718 10.6189L13.9839 11.7065L15.0773 12.7998L16.1648 11.7122L15.0718 10.6189Z"/>
<path d="M7.46704 13.8975H1.10706C0.813354 13.8975 0.53186 14.0142 0.324219 14.2217C0.116699 14.4292 0 14.7109 0 15.0044C0 15.2981 0.116699 15.5796 0.324219 15.7871C0.443848 15.9067 0.588013 15.9961 0.744873 16.0505C0.860352 16.0906 0.982544 16.1116 1.10706 16.1116H5.26599L7.46704 13.8975Z"/>
<path d="M24.9955 13.8975H28.8932C29.1865 13.8977 29.4683 14.0144 29.6759 14.2219C29.8832 14.4297 30 14.7112 30 15.0046C30 15.2983 29.8832 15.5798 29.6759 15.7876C29.4683 15.9951 29.1865 16.1118 28.8932 16.1118H22.7944L23.5725 15.3301L24.9955 13.8975Z"/>
<path d="M9.92542 18.6047L5.19592 23.3342C4.98828 23.5417 4.87158 23.8232 4.87146 24.1169C4.87146 24.1433 4.87244 24.1694 4.87427 24.1956L4.87793 24.2373L4.88208 24.2703C4.88562 24.2959 4.89014 24.3215 4.89551 24.3469L4.90125 24.3726L4.9071 24.396L4.91809 24.4355C4.92249 24.4502 4.92712 24.4646 4.93213 24.479L4.94519 24.5151C4.95789 24.5479 4.97205 24.5798 4.98779 24.6113C5.04053 24.717 5.11035 24.8147 5.19543 24.8999C5.40308 25.1074 5.68457 25.2244 5.97815 25.2244C6.27173 25.2244 6.55334 25.1079 6.76099 24.9001L11.4907 20.1699L9.92542 18.6047Z"/>
<path d="M25.0298 6.63013L20.255 11.4045L18.6907 9.84009L23.4647 5.06519C23.5669 4.95996 23.6888 4.87622 23.8239 4.8186C23.9589 4.76099 24.1038 4.73071 24.2502 4.72974C24.3418 4.72925 24.433 4.73999 24.5215 4.76147C24.5747 4.77441 24.6271 4.7915 24.6781 4.8125C24.8138 4.86792 24.9371 4.9502 25.0409 5.05371C25.0872 5.1001 25.1292 5.15015 25.1664 5.20361C25.182 5.22607 25.1968 5.24902 25.2107 5.27246C25.238 5.3186 25.262 5.3667 25.2823 5.4165C25.3381 5.55225 25.3661 5.69751 25.3649 5.84424C25.3643 5.99097 25.3337 6.13599 25.2761 6.27075C25.2487 6.33569 25.215 6.39746 25.1758 6.45557C25.1333 6.51831 25.0844 6.5769 25.0298 6.63013Z"/>
<path d="M14.0316 29.2959C14.0867 29.437 14.1707 29.5667 14.2799 29.6758C14.4875 29.8835 14.7694 30 15.0627 30C15.3564 30 15.6378 29.8835 15.8455 29.6758C16.0531 29.4683 16.1699 29.1863 16.1699 28.8931V24.8491L13.9558 22.6355V28.8931C13.9558 29.032 13.9819 29.1685 14.0316 29.2959Z"/>
<path d="M8.34692 26.7886C8.37195 26.7578 8.39868 26.7285 8.42688 26.7004L13.2241 21.9033L13.547 22.2256V24.7107L9.99194 28.2656C9.88928 28.3691 9.76733 28.4512 9.63281 28.5071L9.60095 28.52C9.58667 28.5254 9.57239 28.5305 9.55786 28.5354C9.51941 28.5483 9.48022 28.5591 9.44055 28.5676C9.3645 28.5842 9.28674 28.5925 9.20862 28.5925C9.06287 28.593 8.91858 28.5645 8.78394 28.5088C8.64929 28.4531 8.52698 28.3713 8.42407 28.2683C8.32104 28.1653 8.23938 28.043 8.18372 27.9084L8.17627 27.8896L8.16772 27.8669L8.15735 27.8374C8.14429 27.7986 8.13342 27.7593 8.12476 27.7192C8.10815 27.6421 8.09973 27.5632 8.09985 27.4841C8.1001 27.3379 8.12915 27.1938 8.18518 27.0598C8.21594 26.9861 8.25439 26.916 8.29993 26.8508L8.32312 26.8191L8.34692 26.7886Z"/>
<path d="M11.6119 16.5576H9.13098L8.80762 16.8818L10.0787 18.1533L10.0934 18.1389L11.8065 19.8523L11.7919 19.8667L15.0903 23.166L15.1045 23.1516L16.5994 24.6462L16.5848 24.6606L20.0992 28.1748C20.1365 28.2131 20.1763 28.2485 20.2184 28.281C20.2419 28.2991 20.2661 28.3162 20.291 28.3323C20.3162 28.3486 20.342 28.364 20.3685 28.3782L20.3796 28.384L20.4091 28.3987C20.4253 28.4067 20.4418 28.4143 20.4584 28.4214C20.593 28.479 20.7383 28.509 20.8846 28.5103C21.0316 28.5115 21.1768 28.4834 21.3126 28.4277C21.4484 28.3721 21.5717 28.29 21.6754 28.1863C21.7792 28.0825 21.8613 27.9592 21.917 27.8235C21.9341 27.782 21.9486 27.7395 21.9604 27.6963C21.9872 27.5986 22.0004 27.4976 21.9995 27.396C21.9987 27.249 21.9683 27.1042 21.9106 26.9692C21.8843 26.9075 21.8525 26.8486 21.8158 26.7932C21.7721 26.7271 21.7213 26.6655 21.6643 26.6101L11.6119 16.5576Z"/>
<path d="M18.0896 20.1733L16.9598 21.303L15.3911 19.7341L16.5209 18.6047L18.0896 20.1733Z"/>
<path d="M15.1085 17.1914L13.9791 18.3208L15.0726 19.4143L16.2023 18.2849L16.1707 18.2539L15.1085 17.1914Z"/>
<path d="M23.3123 21.6899L23.3269 21.6765L25.0081 23.3564C25.0796 23.4277 25.1411 23.5083 25.1909 23.5959L25.1973 23.6074L25.2156 23.6416C25.2279 23.6658 25.2393 23.6904 25.2498 23.7156C25.274 23.7742 25.2933 23.8345 25.3074 23.896C25.3254 23.9758 25.3347 24.0576 25.335 24.1396C25.3354 24.2854 25.3065 24.4297 25.2509 24.5642C25.2296 24.616 25.2045 24.666 25.1757 24.7139C25.1296 24.7903 25.0743 24.8608 25.0109 24.9243C24.9078 25.0271 24.7855 25.1089 24.6509 25.1646C24.5164 25.2202 24.3718 25.2485 24.2261 25.2483C24.0804 25.2483 23.9364 25.219 23.8018 25.1631C23.7148 25.1267 23.6331 25.0793 23.5583 25.0227C23.5177 24.9917 23.4791 24.9578 23.443 24.9214L21.7629 23.2415L21.7772 23.2263L18.4017 19.854L18.3871 19.8684L15.4104 16.8899L15.4246 16.8755L16.1703 16.1299V16.1121H16.188L16.9604 15.3396L17.7327 16.1133L18.0544 16.4338L18.1794 16.5605L18.3741 16.7524L18.6542 17.0325L18.9818 16.7051L18.8372 16.5605L18.7006 16.425L20.1185 15.0081L21.2285 13.8982L21.6855 13.4421L26.6956 8.43066C26.7983 8.32788 26.9202 8.24634 27.0544 8.19067C27.068 8.18506 27.0817 8.17969 27.0953 8.17456C27.109 8.16943 27.1228 8.16479 27.1366 8.1604C27.1477 8.15674 27.1589 8.15332 27.1702 8.15015L27.2046 8.14087C27.2938 8.11816 27.3857 8.10669 27.4784 8.10669C27.6237 8.10669 27.7673 8.13525 27.9019 8.19092C28.0363 8.24658 28.1581 8.32812 28.2607 8.43091C28.3638 8.53369 28.4451 8.65576 28.5009 8.79004C28.5564 8.92432 28.5848 9.06836 28.5848 9.21362C28.5848 9.35913 28.556 9.50293 28.5009 9.63721C28.4451 9.77148 28.3634 9.89355 28.2604 9.99634L21.6974 16.5598H21.6714L21.6848 16.5732L21.3966 16.8606L20.2677 17.991L19.5015 17.2249H18.8466L23.3123 21.6899Z"/>
<path d="M13.1989 14.6782L13.9561 13.9199L13.9785 13.897L14.764 13.1128L6.73792 5.08716C6.53003 4.88086 6.24902 4.76538 5.95618 4.76587C5.66333 4.76636 5.38269 4.88306 5.17554 5.09009C4.96851 5.29712 4.85193 5.57764 4.85144 5.87061L4.85156 5.88965L4.85229 5.91235C4.85278 5.92627 4.85352 5.94019 4.85449 5.95386C4.85742 5.99414 4.86255 6.03394 4.86975 6.07324C4.87659 6.1106 4.88538 6.14746 4.896 6.18359C4.90186 6.20337 4.9082 6.22314 4.91504 6.24268C4.94836 6.33643 4.99426 6.42578 5.05188 6.50781C5.08777 6.55908 5.12817 6.60742 5.17273 6.65234L13.1989 14.6782Z"/>
<path d="M5.41052 13.4863H7.87561L8.20715 13.1526L3.39453 8.33984C3.18665 8.13354 2.90564 8.01782 2.61279 8.01831C2.31995 8.01904 2.03931 8.1355 1.83228 8.34253C1.62512 8.54956 1.50854 8.83032 1.50806 9.12305C1.50757 9.41602 1.62305 9.69702 1.82935 9.90479L5.41052 13.4863Z"/>
<path d="M22.3499 16.5598H24.8016L28.2607 20.0176C28.3638 20.1204 28.4459 20.2424 28.5023 20.3767L28.5105 20.3972C28.5153 20.4092 28.5198 20.4211 28.524 20.4333C28.5308 20.4524 28.537 20.4714 28.5426 20.4907C28.5613 20.5544 28.5742 20.6196 28.5813 20.6855C28.5854 20.7239 28.5875 20.7625 28.5876 20.801C28.588 20.9468 28.5592 21.0911 28.5035 21.2256C28.4478 21.3604 28.3665 21.4827 28.2635 21.5857C28.2274 21.6218 28.1888 21.6553 28.1482 21.686C28.1218 21.7061 28.0945 21.7249 28.0664 21.7422C28.0146 21.7744 27.9601 21.8025 27.9034 21.8259C27.7689 21.8816 27.6244 21.9099 27.4788 21.9099C27.3331 21.9094 27.189 21.8806 27.0544 21.8245C26.9202 21.7683 26.7982 21.6863 26.6956 21.5828L22.0112 16.8982L22.3499 16.5598Z"/>
<path d="M21.6967 3.3689C21.9027 3.16113 22.0183 2.87988 22.0179 2.58716C22.0172 2.29419 21.9008 2.01367 21.6938 1.80664C21.4866 1.59961 21.2061 1.48291 20.9131 1.48242C20.6202 1.48193 20.3391 1.59741 20.1315 1.80371L16.6379 5.29712L16.6266 7.77222L16.9597 8.10547L21.6967 3.3689Z"/>
<path d="M11.4911 13.574L3.42969 21.6362C3.32751 21.7415 3.20544 21.8252 3.07056 21.8828C2.99072 21.917 2.90735 21.9414 2.82214 21.9558C2.76343 21.9658 2.70386 21.9712 2.64404 21.9717C2.61682 21.9719 2.5896 21.9709 2.5625 21.9692C2.52136 21.9666 2.48035 21.9614 2.43982 21.9541C2.3634 21.9402 2.28845 21.9185 2.21619 21.8889C2.08044 21.8335 1.95728 21.7512 1.85352 21.6477C1.83582 21.6299 1.81873 21.6116 1.80237 21.5928C1.77991 21.5671 1.75867 21.5405 1.73877 21.5129C1.68787 21.4424 1.64526 21.366 1.61206 21.2849C1.58887 21.2283 1.57043 21.1699 1.55688 21.1106C1.53796 21.0278 1.52869 20.9426 1.5293 20.8572C1.5304 20.7104 1.56055 20.5654 1.61804 20.4307C1.67566 20.2957 1.7594 20.1736 1.86462 20.0713L8.49463 13.4399L8.79651 13.1399L9.92712 12.0088L11.4911 13.574Z"/>
<path d="M18.0979 13.5615L16.5328 11.9963L12.0935 16.4358L13.6587 18.0007L18.0979 13.5615Z"/>
<path d="M18.3822 16.1042L18.3759 16.1116L17.2825 15.0181L17.2888 15.0107L18.4185 13.8813L18.4347 13.8975H20.5887L20.5458 13.9409L19.8 14.6875L19.512 14.9749L18.3822 16.1042Z"/>
<path d="M18.5997 13.4861H20.9998L21.3647 13.1221L20.2719 12.0298L19.9521 11.7087L9.99121 1.74805C9.88953 1.64062 9.76733 1.55469 9.63184 1.49536C9.49634 1.43579 9.35034 1.4043 9.20239 1.4021C9.1499 1.40137 9.09753 1.4043 9.04578 1.41113C8.95154 1.42334 8.85913 1.44775 8.77063 1.48364C8.63354 1.53931 8.50916 1.62183 8.40454 1.72656C8.30005 1.8313 8.21741 1.95581 8.16187 2.09277C8.1062 2.22998 8.07874 2.37671 8.08081 2.52466C8.08289 2.67261 8.11475 2.8186 8.17419 2.9541C8.19983 3.01245 8.23047 3.06836 8.26562 3.12109C8.2926 3.16187 8.32227 3.20068 8.35437 3.2373C8.37744 3.26367 8.40173 3.28906 8.42725 3.31323L18.5997 13.4861Z"/>
</svg>
