<svg width="44" height="44" viewBox="0 0 44 44" fill="none" xmlns="http://www.w3.org/2000/svg">
<path d="M17.7565 14.4154L20.0521 16.7109L21.7084 15.0543L19.4129 12.7588L17.7565 14.4154Z" fill="#FFCF00"/>
<path d="M22.1054 15.5744L20.5098 17.1696L22.1135 18.7731L23.7085 17.178L22.1054 15.5744Z" fill="#FFCF00"/>
<path d="M23.7159 10.7286V1.62361C23.7159 1.19298 23.5446 0.780018 23.24 0.475549C22.9355 0.171079 22.5227 0 22.092 0C21.6618 0 21.2484 0.171079 20.9439 0.475549C20.6394 0.780018 20.4686 1.19298 20.4686 1.62361V7.48002L23.7159 10.7286Z" fill="#FFCF00"/>
<path d="M10.9517 20.3831H1.62361C1.19299 20.3831 0.780019 20.5541 0.475549 20.8586C0.171078 21.1631 0 21.5761 0 22.0067C0 22.4372 0.171078 22.8502 0.475549 23.1547C0.780019 23.4592 1.19299 23.6303 1.62361 23.6303H7.72339L10.9517 20.3831Z" fill="#FFCF00"/>
<path d="M42.3766 20.3831H36.66L33.4318 23.6307H42.3766C42.8068 23.6307 43.2202 23.4597 43.5247 23.1552C43.8286 22.8507 44 22.4377 44 22.0071C44 21.5765 43.8286 21.1635 43.5247 20.859C43.2202 20.5546 42.8068 20.3831 42.3766 20.3831Z" fill="#FFCF00"/>
<path d="M14.5574 27.2871L7.62071 34.2238C7.31613 34.5282 7.14493 34.9411 7.14482 35.3717C7.1447 35.8023 7.31566 36.2154 7.62002 36.52C7.92443 36.8245 8.33734 36.9959 8.76796 36.9959C9.19859 36.9959 9.61161 36.8251 9.9162 36.5206L16.853 29.5826L14.5574 27.2871Z" fill="#FFCF00"/>
<path d="M29.7074 16.7269L36.7104 9.72425C36.8644 9.5743 36.9877 9.39523 37.0716 9.19735C37.1562 8.99952 37.2008 8.78687 37.2019 8.57174C37.2037 8.35666 37.1625 8.14337 37.0809 7.94438C36.9993 7.74534 36.8789 7.56453 36.7266 7.41244C36.5743 7.26035 36.3937 7.13999 36.1945 7.05841C35.9954 6.97684 35.7823 6.93562 35.567 6.93718C35.3522 6.93875 35.1397 6.98304 34.9417 7.06751C34.7437 7.15197 34.5648 7.27488 34.4148 7.42917L27.413 14.4323L29.7074 16.7269Z" fill="#FFCF00"/>
<path d="M20.4686 42.3766C20.4686 42.8068 20.6394 43.2202 20.9439 43.5247C21.2484 43.8292 21.6618 44 22.092 44C22.5227 44 22.9355 43.8292 23.24 43.5247C23.5446 43.2202 23.7159 42.8068 23.7159 42.3766V36.4456L20.4686 33.1988V42.3766Z" fill="#FFCF00"/>
<path d="M12.3593 39.1609C12.2077 39.3114 12.0873 39.4903 12.005 39.6877C11.9227 39.8845 11.8802 40.0959 11.8798 40.3101C11.8794 40.5237 11.9212 40.735 12.0027 40.9324C12.0844 41.1299 12.2041 41.3093 12.3552 41.4604C12.5063 41.6116 12.6857 41.7314 12.8832 41.813C13.0806 41.8947 13.2922 41.9363 13.5059 41.9358C13.7195 41.9358 13.931 41.8929 14.1281 41.8107C14.3253 41.7285 14.5043 41.6081 14.6548 41.4564L19.8689 36.2423V32.5978L19.3953 32.1248L12.3593 39.1609Z" fill="#FFCF00"/>
<path d="M17.0308 24.2847H13.3922L12.9179 24.7603L14.7822 26.625L14.8037 26.6039L17.3163 29.1168L17.2948 29.1379L22.1326 33.9771L22.1534 33.9559L24.3459 36.148L24.3245 36.1692L29.4789 41.3232C29.6288 41.4778 29.8077 41.6005 30.0057 41.685C30.2032 41.7696 30.4162 41.8136 30.631 41.8153C30.8464 41.817 31.0594 41.7759 31.2586 41.6943C31.4577 41.6127 31.6384 41.4923 31.7906 41.34C31.9429 41.1877 32.0633 41.0071 32.145 40.8079C32.2266 40.6094 32.2677 40.3957 32.266 40.1809C32.2648 39.9656 32.2202 39.7531 32.1357 39.5551C32.0512 39.3571 31.9284 39.1782 31.7744 39.0282L17.0308 24.2847Z" fill="#FFCF00"/>
<path d="M24.8745 31.2445L26.5314 29.5879L24.2307 27.2871L22.5737 28.9437L24.8745 31.2445Z" fill="#FFCF00"/>
<path d="M22.1591 25.2141L20.5027 26.8708L22.1064 28.4746L23.7634 26.818L23.7171 26.7726V26.7713L22.1591 25.2141Z" fill="#FFCF00"/>
<path d="M34.2128 31.7921L34.1914 31.8119L26.9487 24.5704L26.6633 24.2888L26.4797 24.1031L26.0079 23.6327L24.8755 22.498L23.7424 23.631H23.7164V23.6574L22.6227 24.7508L22.6019 24.7719L26.9678 29.1402L26.9892 29.1191L31.9398 34.0651L31.919 34.0876L34.383 36.5515C34.5335 36.7032 34.7124 36.8236 34.9093 36.9058C35.1067 36.988 35.318 37.0309 35.5317 37.0309C35.7453 37.0314 35.9572 36.9898 36.1546 36.9081C36.352 36.8265 36.5315 36.7066 36.6826 36.5555C36.8337 36.4047 36.9536 36.2253 37.0346 36.0278C37.1162 35.8303 37.1585 35.6187 37.1579 35.4051C37.1574 35.1914 37.1151 34.9799 37.0329 34.7828C36.9501 34.5856 36.8297 34.4067 36.6786 34.2561L34.2128 31.7921Z" fill="#FFCF00"/>
<path d="M19.3582 21.5282L20.4687 20.4158L20.5017 20.3824L21.6538 19.2322L9.88211 7.46128C9.57735 7.15872 9.16508 6.9892 8.73561 6.99001C8.30609 6.99077 7.89446 7.16173 7.59074 7.46539C7.28708 7.76911 7.11611 8.18074 7.11536 8.61026C7.11455 9.03973 7.28401 9.452 7.58663 9.75676L19.3582 21.5282Z" fill="#FFCF00"/>
<path d="M31.135 20.384L29.507 22.012L29.0844 22.4335L27.4274 24.0902L27.6277 24.289L29.7259 26.387L31.3817 24.729L31.8043 24.3075L31.7846 24.2877H31.8228L41.4485 14.6613C41.5996 14.5106 41.7194 14.3317 41.801 14.1347C41.8821 13.9377 41.9244 13.7267 41.9244 13.5134C41.9244 13.3003 41.8827 13.0891 41.801 12.8922C41.7194 12.6951 41.6001 12.5162 41.449 12.3654C41.2985 12.2146 41.1196 12.095 40.9228 12.0134C40.7254 11.9317 40.5146 11.8897 40.3016 11.8897C40.0879 11.8897 39.8772 11.9316 39.6798 12.0131C39.4829 12.0947 39.304 12.2142 39.1535 12.365L31.8054 19.7152L31.135 20.384Z" fill="#FFCF00"/>
<path d="M7.93538 19.78H11.5509L12.0371 19.2907L4.97856 12.2317C4.6738 11.9291 4.26152 11.7597 3.83206 11.7604C3.40259 11.7612 2.9909 11.9322 2.68724 12.2358C2.38352 12.5396 2.21256 12.9512 2.2118 13.3807C2.21105 13.8101 2.38051 14.2225 2.68307 14.5272L7.93538 19.78Z" fill="#FFCF00"/>
<path d="M36.3758 24.288H32.78L32.2832 24.7844L39.1536 31.655C39.3041 31.8065 39.483 31.927 39.6799 32.0093C39.8773 32.0916 40.0886 32.1341 40.3023 32.1345C40.5159 32.1349 40.7278 32.0931 40.9252 32.0115C41.1226 31.9299 41.3021 31.8102 41.4532 31.6591C41.6043 31.508 41.7236 31.3286 41.8052 31.1311C41.8868 30.9337 41.9291 30.7221 41.9285 30.5084C41.9279 30.2948 41.8857 30.0833 41.8035 29.8861C41.7207 29.689 41.6003 29.51 41.4492 29.3594L36.3758 24.288Z" fill="#FFCF00"/>
<path d="M31.8217 4.94088C32.1239 4.63612 32.2935 4.22385 32.293 3.79438C32.2918 3.36486 32.121 2.95322 31.8176 2.64951C31.5137 2.34585 31.102 2.17488 30.6725 2.17413C30.2429 2.17332 29.8307 2.34284 29.5261 2.6454L24.4024 7.76922L24.3856 11.3992L24.8742 11.8881L31.8217 4.94088Z" fill="#FFCF00"/>
<path d="M16.8536 19.9086L14.5599 17.6131L12.9016 19.2719L12.4589 19.7119L2.73482 29.4381C2.58059 29.5881 2.45768 29.7672 2.37327 29.965C2.2888 30.1629 2.24457 30.3755 2.24306 30.5907C2.2415 30.8057 2.28278 31.019 2.36441 31.218C2.44604 31.417 2.56641 31.5979 2.7185 31.7499C2.87064 31.902 3.05145 32.0224 3.25049 32.104C3.44954 32.1855 3.66282 32.2268 3.87796 32.2252C4.09304 32.2236 4.30569 32.1794 4.50352 32.0949C4.70135 32.0104 4.88042 31.8874 5.03031 31.7332L16.8536 19.9086Z" fill="#FFCF00"/>
<path d="M26.5436 19.8902L24.248 17.5947L17.7371 24.1059L20.0327 26.4014L26.5436 19.8902Z" fill="#FFCF00"/>
<path d="M26.9513 23.6304L26.9606 23.6199L28.6176 21.9633L29.0402 21.5418L30.1338 20.447L30.1969 20.3832H27.0376L27.0139 20.3595L25.3569 22.0161L25.3476 22.0266L26.9502 23.6304H26.9513Z" fill="#FFCF00"/>
<path d="M27.2795 19.78H30.7995L31.3351 19.2458L29.7319 17.6438L29.263 17.173L14.6538 2.56398C14.5046 2.40639 14.3254 2.28035 14.1267 2.19322C13.928 2.10603 13.7138 2.05966 13.4969 2.0567C13.2799 2.05375 13.0646 2.09433 12.8636 2.17602C12.6626 2.25777 12.48 2.37894 12.3267 2.53242C12.1733 2.6859 12.0523 2.86856 11.9707 3.06963C11.8892 3.2707 11.8488 3.48607 11.8518 3.703C11.8549 3.91994 11.9016 4.13409 11.9888 4.33273C12.0761 4.53136 12.2023 4.71049 12.36 4.85951L27.2795 19.78Z" fill="#FFCF00"/>
<path d="M30.3409 22.0001L30.3235 22.016L27.0769 25.2632H30.2842L30.2882 25.2605L31.9446 23.6039L30.3409 22.0001Z" fill="#FFCF00"/>
</svg>
